<?xml version="1.0" standalone="no"?>
<!DOCTYPE svg PUBLIC "-//W3C//DTD SVG 20010904//EN"
 "http://www.w3.org/TR/2001/REC-SVG-20010904/DTD/svg10.dtd">
<svg version="1.0" xmlns="http://www.w3.org/2000/svg"
 width="332.000000pt" height="332.000000pt" viewBox="0 0 332.000000 332.000000"
 preserveAspectRatio="xMidYMid meet">
<metadata>
Created by potrace 1.16, written by Peter Selinger 2001-2019
</metadata>
<g transform="translate(0.000000,332.000000) scale(0.064844,-0.064844)"
fill="#000000" stroke="none">
<path d="M4202 4942 c-15 -16 -43 -56 -63 -89 l-37 -61 -97 -3 c-82 -3 -99 -7
-111 -23 -28 -39 -17 -72 46 -145 l60 -70 -24 -88 c-27 -102 -21 -139 22 -150
25 -6 58 3 168 48 29 12 35 10 108 -36 83 -51 115 -58 147 -29 18 17 20 26 14
119 l-6 100 47 34 c81 61 104 87 104 118 0 41 -23 58 -110 78 -41 10 -82 21
-90 25 -8 5 -29 45 -45 90 -41 113 -81 137 -133 82z m70 -265 c2 -5 27 -16 56
-26 l53 -17 -40 -32 c-39 -31 -41 -36 -41 -88 l0 -55 -37 26 c-44 29 -58 30
-106 10 -20 -8 -38 -15 -40 -15 -2 0 1 23 7 51 6 32 7 55 1 64 -6 7 -20 27
-33 44 l-23 31 51 0 c49 0 52 2 83 46 l32 46 17 -39 c10 -21 19 -42 20 -46z"/>
<path d="M1735 4537 c-55 -18 -83 -34 -131 -72 -76 -62 -94 -112 -189 -540
-47 -214 -87 -390 -88 -391 -1 -1 -130 27 -287 62 -239 54 -297 64 -360 61
-179 -7 -315 -138 -328 -317 -8 -122 47 -243 141 -305 25 -16 46 -33 46 -37 1
-3 -76 -55 -170 -115 -210 -132 -236 -155 -280 -235 -33 -61 -34 -67 -34 -173
0 -130 -6 -116 158 -375 115 -184 137 -210 169 -210 11 0 67 29 124 65 57 36
106 65 109 65 3 0 5 -345 5 -767 0 -470 4 -785 10 -811 27 -115 99 -204 208
-255 l67 -32 1200 0 1200 0 57 23 c80 32 150 99 190 180 l33 67 3 876 c2 839
2 876 -16 892 -17 16 -123 17 -1338 19 l-1319 3 1138 723 c625 398 1142 732
1147 742 6 10 10 25 10 32 0 26 -260 423 -303 462 -60 56 -133 86 -220 93
-108 8 -158 -10 -343 -128 -87 -55 -166 -105 -175 -110 -15 -8 -15 -3 -2 59
41 194 -30 358 -185 430 -67 31 -184 39 -247 19z m154 -127 c60 -17 109 -59
137 -117 31 -63 30 -110 -8 -276 l-23 -99 -255 -162 c-140 -90 -256 -160 -258
-156 -1 4 31 159 72 344 78 351 91 387 148 427 62 44 124 57 187 39z m-34
-1100 c122 -192 153 -247 143 -255 -27 -25 -512 -328 -526 -329 -12 -1 -337
492 -329 500 27 25 543 342 549 336 4 -4 77 -117 163 -252z m-892 168 c130
-29 236 -56 235 -60 -2 -5 -117 -80 -256 -168 l-254 -159 -44 14 c-25 7 -61
26 -81 40 -43 33 -83 115 -83 171 0 43 38 130 69 158 32 29 95 55 136 56 22 0
147 -23 278 -52z m1365 -2295 l2 -903 -320 0 -320 0 0 905 0 905 318 -2 317
-3 3 -902z"/>
<path d="M3378 4434 c-36 -19 -48 -43 -48 -99 0 -64 39 -105 100 -105 78 0
120 41 120 116 0 52 -53 104 -106 104 -22 -1 -51 -7 -66 -16z"/>
<path d="M4902 4301 c-75 -48 -67 -163 15 -198 78 -32 153 18 153 103 0 89
-93 141 -168 95z"/>
<path d="M4148 4253 c-9 -10 -21 -43 -28 -73 -31 -138 -135 -268 -247 -310
-109 -41 -258 -44 -396 -10 -40 11 -51 10 -71 -4 -31 -19 -39 -46 -27 -79 13
-33 79 -54 210 -66 223 -20 399 35 518 163 77 83 153 253 153 342 0 47 -80 74
-112 37z"/>
<path d="M4573 3814 c-6 -3 -33 -41 -59 -84 -28 -45 -57 -81 -69 -84 -11 -3
-52 -6 -90 -6 -87 0 -115 -16 -115 -65 0 -28 12 -48 59 -103 l59 -68 -24 -90
c-24 -91 -24 -113 2 -139 23 -22 51 -19 141 19 l80 34 74 -49 c84 -55 128 -63
153 -28 12 18 14 42 10 118 l-6 96 74 60 c116 95 106 135 -42 175 l-93 25 -32
84 c-38 101 -68 127 -122 105z m87 -301 c14 -7 37 -15 52 -18 l28 -5 -40 -36
c-37 -34 -40 -40 -40 -91 l0 -54 -37 26 c-44 29 -60 31 -110 10 -20 -8 -37
-14 -39 -13 -1 2 3 24 9 51 10 45 9 49 -22 92 l-32 45 43 0 c49 0 64 9 98 59
l23 33 21 -43 c12 -24 32 -49 46 -56z"/>
<path d="M3589 3571 c-204 -29 -430 -157 -570 -324 -78 -93 -149 -206 -149
-237 0 -37 30 -62 71 -58 30 3 40 13 92 91 190 289 472 437 759 398 51 -6 133
-25 181 -42 49 -16 99 -29 112 -29 36 0 57 27 53 69 -3 32 -8 38 -52 60 -120
57 -358 91 -497 72z"/>
<path d="M2367 2970 c-36 -29 -52 -81 -37 -125 26 -78 120 -102 182 -46 29 26
33 35 33 81 0 46 -4 55 -33 81 -40 36 -105 40 -145 9z"/>
<path d="M3767 2972 c-20 -22 -21 -42 -5 -145 l12 -78 -67 -62 c-59 -55 -67
-67 -67 -98 0 -20 6 -42 14 -48 8 -6 56 -18 107 -27 51 -8 94 -16 95 -17 1 -1
20 -39 43 -85 45 -89 70 -109 116 -92 17 6 37 34 66 92 23 46 42 84 43 85 1 1
44 9 96 18 103 16 120 27 120 79 0 24 -13 42 -68 93 l-69 63 13 68 c19 95 17
136 -4 155 -28 26 -59 21 -144 -24 l-78 -40 -78 40 c-85 45 -120 50 -145 23z
m180 -183 l43 -21 43 21 c24 12 46 21 49 21 3 0 2 -19 -2 -42 -10 -51 -5 -64
33 -105 l30 -32 -39 -6 c-54 -9 -66 -16 -89 -58 -11 -20 -23 -37 -26 -37 -4 0
-12 14 -19 31 -16 37 -42 55 -93 65 l-38 6 24 27 c39 41 46 62 37 109 -4 23
-5 42 -2 42 3 0 25 -9 49 -21z"/>
<path d="M3215 2854 c-108 -22 -138 -29 -189 -51 -95 -40 -179 -98 -255 -178
-78 -82 -89 -117 -51 -155 30 -30 67 -25 98 13 64 77 140 140 217 178 134 66
267 84 420 54 104 -20 135 -6 135 59 0 37 -33 56 -117 71 -72 13 -212 18 -258
9z"/>
<path d="M4733 2806 c-80 -36 -82 -160 -3 -201 116 -60 227 88 132 177 -34 33
-87 43 -129 24z"/>
<path d="M2528 2474 c-36 -19 -48 -43 -48 -99 0 -64 39 -105 100 -105 78 0
120 41 120 116 0 52 -53 104 -106 104 -22 -1 -51 -7 -66 -16z"/>
</g>
</svg>
